<?xml version="1.0" encoding="utf-8"?>
<!-- Generator: Adobe Illustrator 21.1.0, SVG Export Plug-In . SVG Version: 6.00 Build 0)  -->
<svg version="1.0" id="图层_1" xmlns="http://www.w3.org/2000/svg" xmlns:xlink="http://www.w3.org/1999/xlink" x="0px" y="0px"
	 viewBox="0 0 270 110" style="enable-background:new 0 0 270 110;" xml:space="preserve">
<style type="text/css">
	.st0{fill-rule:evenodd;clip-rule:evenodd;}
</style>
<path class="st0" d="M2.1,33.9c0.6-6.6,0.4-20.9,10-17.8c-2.5,2.8,21.2,3,19.7-1.1c2.9-0.2,3.9-0.3,4.7,0.1
	c10.2,5.3,7,29.4,5.6,39.3c-2.4,4.7-7,14.5-9.9,15.1c-6.1-18.5,1-9.9,3.7-12.9c3.5-10.3,2.5-30.9-2.8-33.9c-3.7,0-13.5,3.7-18.7,2.5
	c-8.1,3-6.3,35-7.6,44.8c-3.4-1-3.5-1.7-5-3.8C1.8,57.2,2.1,37.3,2.1,33.9L2.1,33.9z"/>
<path class="st0" d="M16,32.4c-0.1,0.1-0.1,2.6,0.7,2.6c5.9,0.4,9.5,0.2,9.4-1.9c-0.1-1.4,0.1-1.9-0.6-2.4c-0.6-0.4-3.1-0.5-4.5-0.4
	C18.6,30.6,16.9,30.4,16,32.4L16,32.4z"/>
<path class="st0" d="M18.9,50c0.5,10.6-6.4,3.5-7.6-1c-0.1-15,29.4-2.6,14.6,5.2C19.8,57.9,22.6,45.4,18.9,50L18.9,50z"/>
<path class="st0" d="M80.5,11.7c-4.2,2.8-1.5,8.7,3.6,9.2c3.6,0.3-0.3-4.2-0.3-5.9c0-0.5,0.7-2.7-0.2-3.3
	C83.3,11.4,80.3,10.9,80.5,11.7L80.5,11.7z"/>
<path class="st0" d="M80.8,22.3c1.1,3.4,0.8,5.2-1.2,7.3c-2.6,2.7-7.1,2.7-3.7-1.9c0.7-0.9,1.1-4.9,0.9-6.3
	C76.6,19.9,81.1,21.7,80.8,22.3L80.8,22.3z"/>
<path class="st0" d="M68.9,74.4c-2.1-1.9-2.7-3.6-3.4-8.3c2.6-9.7,7.3-15.5,7.5-32.7c0-0.2,2.3,0.3,2.3,0.8c0,6.6,0.8,17.2-1.7,21.5
	c-1.2,1.3-1.2,9.7-1.2,11.8C71.6,72,70.4,75.2,68.9,74.4L68.9,74.4z"/>
<path class="st0" d="M92.1,24.9c-3.4,4.2-1.6,6.5-0.7,8.2c0,3.6-6.4,8.3-8.9,10.9c-1.7,1.8-3.5,4.8-1.7,8c5.1,0.9,6.9-1.3,9.2-5.2
	c1.3-2.2,4.3-7,6.1-10.9c-0.3,0.3,3.5-4.2,5.9-3.8c1.4,4.3-5.1,4-4.5,10.1c3.2,3.4,6.1-6.6,6.5-7.6c1.8-4.1,5.6-9.2,5.8-3.6
	c0.5,5.4,0.2,7.1,1.7,10.5c1.8,2.9,6.3,1.1,4.9-2.7c-2.4-2.6-4.3-0.9-3.9-10.4c0-1.6,0.8-0.3,4.1-2.9c-0.6-0.2,3.3-3.6-0.8-3.8
	c-0.6,0.2-10.5,8.4-11.9,5.4c-1.5-3.2,6.2-6.2,8.2-8.6c0.8-1,1.5-1.5,1.6-4c-2.7-0.4-10.1,1.1-4.9-6c1.1-2.8-6.6-1.2-7-0.7
	c-3.2,1.6-8,5.8-9.8,9.6c-2.3,6.3,1.6,3.9,4.9,2.9c1.9-1.5,4-4.2,7.8-4.2c4.6,0.7-4.8,9.6-4.8,11c-0.7,1.9-0.5,3.6-1,4.3
	C94,34.6,95.3,23.6,92.1,24.9L92.1,24.9z"/>
<path class="st0" d="M121.7,26.4c2.8,3.6,3,2.7-0.3,6.2c-1.4,1.5,6.1,3,6.4,3.3c1.7,1.8,13.4,1.1,7.8,7.1
	c-4.1,4.4-14.3-1.7-16.8-4.4c-0.8-0.9-6.1-5-4.1-7.1C116.2,29.8,119.1,26.7,121.7,26.4L121.7,26.4z"/>
<path class="st0" d="M96,44.7c-1.8,0-3.5,7.5-3.9,9.7c-0.6,4-0.8,6.4-0.8,10.1c0,4.2,3.8,4.7,3.8,0.8c0-3.6,0.5-7.5,1.6-10.1
	c1.6-3.3,4.5-1,3.8,4.1c-0.7,9.1,3,1.7,5.9-1.5c0.6-0.9,5.9-11.5,8.1-5c2.7,4.2-6.2,18.1-5.2,19.1c2.5,2.7,7.8-9.3,8.9-11.7
	c1.5-4.9,1.4-10.1-0.8-13.4c-2.5-2.7-4.7-2-7.1,0.6c-0.4,0.5-2.8,7.6-4.4,6c-1-1.5,0.6-5.2-1.4-5.9c-1.7,0.5-4.9,5.1-6.9,4.1
	c-0.4-0.5-0.6-4.4-0.1-5.1C97.8,44.3,96.5,44.6,96,44.7L96,44.7z"/>
<path class="st0" d="M178.1,13.7c-2.4,4.1-5.5,7.9-7,14.4c-0.4,4.2-0.1,9.1-3,9.2c-3,0-7.5-0.3-9.1,1.4c-2.1,0.1-7.2,8.4-3.3,8.4
	c3.2,0,6.2-0.2,8-2.1c4.6-2.3,6.3-1.8,4.2,1.8c-2.2,4.5-3.9,8.5-6.1,13c-1.7,3.8-3.8,7.6,0.2,8.6c3-1.5,8.9-11.7,10.7-13.4
	c1.5-2.6,2.3-6.1,3-9.4c-0.1-4,1.5-2.3,7.2-2.5c5.9-0.5,5.8,1,6.9-7c-1.3-3.2-4.6,1.2-5.9,1.7c-3.2-0.1-6.2,0.7-6.8-0.4
	c-1.6-3.7,5.2-16.8,5.2-22.1C182.5,11.8,179.5,12.9,178.1,13.7L178.1,13.7z"/>
<path class="st0" d="M185.3,61.5c1.8,1.9,5.1,3.7,7.2,3.7c1.6,0,1.5-9,0.3-9.5c-1.9-0.4-4.9-2.8-5.6-3.5
	C180.1,47.9,180.3,57.4,185.3,61.5L185.3,61.5z"/>
<path class="st0" d="M231.8,31c-1.2-4.7,3.9-23.2-1-22c-3.9,1-0.8,16.6-2.8,19.7c-2.8,1.4-6.8-4.3-7.4,1.4c-0.3,3.2,0.3,6.2,0.1,9.4
	c-1.5,10.4,3.8,4,5.2-0.3c0.5-5.2,8.9-3.5,14.4-4.4c7.3,0.6,10.6-3,16.8-1.3c2.3,0-4.9,6.9,5.7,2.9c1.1-0.7,6.2-7.6,3.5-8.1
	c-4.1,0-8.8,1-12.9,1c-13.3,2.5-0.6-4.4,5.4-12.4c2-4,2.3-5.7,0.5-8.8c-2.5-2.8-6.4-0.2-6.6,0.3c-1.8,1.9-3.5,3.9-5.9,4
	c-1.1,0.9,0.1-1.9-0.7-2.8c-4.2-0.5-1.7,3.5-4.4,2.7c-3.4,0.8,0.4-3.3-3.3-3.1c-2,0-2.7,2.2-2.9,4.6c-0.1,1-1.6,0.1-1.7,1.3
	c0.3,2,2.6-0.5,2.1,2.2c0,1.8-1.8,4.5-1.8,6.3c0.5,5.6,3.9,4.3,3.6,0.6c-0.1-2.2,3.7-13.1,4.8-6.9c-1.4,2.9-5.3,16,1.1,8.7
	c1.7-1.8,1.9-2.7,3.4-5.2c1.8-3.9-1.4-7.6,7.8-7.8c0.9,1.9-5.6,9.7-7.2,12.5C244.9,30.9,239.7,32.7,231.8,31L231.8,31z"/>
<path class="st0" d="M234.2,48.6c-0.7-10.9,10.9-5.1,15.6-9.2c2-1.8,5.4,4.5,3.5,6.6c-12,10,6.8,3.7,5.8,8.6c-0.2,4.4-5.3,1-8.2,3.1
	c0.4,4-9.8,27.9-16.9,12.7c2.2-3.8,7.7,3.4,11.8-8.4c2.3-10.4-6.4-2-8.9-2c-14.4,0-4-7.5,4.9-7.1c5.5,0,5.1-9.6,1.3-6.2
	C240.2,49.5,237.6,49,234.2,48.6L234.2,48.6z"/>
<path class="st0" d="M34.8,89.8v4.3h-0.4c-0.2-1-0.4-1.7-0.7-2.2c-0.3-0.4-0.6-0.8-1.1-1c-0.3-0.1-0.7-0.2-1.3-0.2h-1v12.4
	c0,0.8,0,1.3,0.1,1.5c0.1,0.2,0.2,0.4,0.4,0.5c0.2,0.2,0.5,0.2,0.9,0.2h0.4v0.4h-7v-0.4h0.4c0.4,0,0.7-0.1,0.9-0.2
	c0.2-0.1,0.3-0.3,0.4-0.6c0.1-0.2,0.1-0.7,0.1-1.5V90.7h-1c-0.9,0-1.6,0.2-2,0.7c-0.6,0.6-0.9,1.5-1.1,2.7h-0.4v-4.3H34.8L34.8,89.8
	z M44.1,89.6c2.1-0.1,3.9,0.6,5.2,2.2c1.3,1.6,2,3.6,2,5.9c0,2-0.5,3.8-1.5,5.4c-1.3,2-3.2,3.1-5.6,3.1c-2.4,0-4.3-1-5.6-2.9
	c-1-1.5-1.6-3.4-1.6-5.5c0-2.4,0.7-4.4,2-5.9C40.4,90.2,42.1,89.5,44.1,89.6L44.1,89.6z M44.2,90.3c-1.2,0-2.2,0.8-2.8,2.2
	c-0.5,1.2-0.8,3-0.8,5.3c0,2.7,0.4,4.8,1.2,6.1c0.6,0.9,1.4,1.4,2.4,1.4c0.7,0,1.3-0.2,1.7-0.6c0.6-0.5,1-1.3,1.4-2.4
	c0.3-1.1,0.5-2.5,0.5-4.3c0-2.1-0.2-3.7-0.5-4.8c-0.3-1.1-0.8-1.8-1.3-2.2C45.4,90.5,44.9,90.3,44.2,90.3L44.2,90.3z M58.1,89.8
	l6.6,9.9v-6.9c0-1-0.1-1.6-0.3-1.9c-0.3-0.5-0.8-0.7-1.6-0.7v-0.4h4.4v0.4c-0.6,0.1-0.9,0.2-1.1,0.3c-0.2,0.1-0.3,0.4-0.5,0.7
	c-0.1,0.3-0.2,0.8-0.2,1.6v13.3h-0.3L56,92.8V103c0,0.9,0.2,1.5,0.5,1.9c0.4,0.3,0.8,0.5,1.2,0.5h0.3v0.4h-4.8v-0.4
	c0.7,0,1.3-0.2,1.5-0.5c0.3-0.4,0.4-1,0.4-1.8V91.7L55,91.3c-0.3-0.4-0.5-0.7-0.8-0.8c-0.2-0.1-0.5-0.2-0.9-0.2v-0.4H58.1L58.1,89.8
	z M82.8,89.4v5.6h-0.4c-0.4-1.5-1.1-2.7-2-3.5c-0.9-0.8-1.9-1.2-2.9-1.2c-1,0-1.8,0.3-2.5,1c-0.7,0.7-1.1,1.6-1.4,2.8
	c-0.3,1.2-0.4,2.4-0.4,3.7c0,1.5,0.2,2.9,0.5,4c0.3,1.2,0.8,2,1.5,2.6c0.7,0.5,1.5,0.8,2.4,0.8c0.3,0,0.7,0,1-0.1
	c0.3-0.1,0.7-0.2,1.1-0.4v-3.3c0-0.6,0-1-0.1-1.2c-0.1-0.2-0.2-0.4-0.5-0.5c-0.2-0.1-0.5-0.2-0.8-0.2h-0.3v-0.4h6.5v0.4
	c-0.5,0-0.8,0.1-1,0.2c-0.2,0.1-0.3,0.3-0.4,0.6c-0.1,0.1-0.1,0.5-0.1,1.1v3.3c-0.9,0.5-1.8,0.8-2.7,1c-0.9,0.2-1.9,0.4-2.9,0.4
	c-1.3,0-2.3-0.2-3.2-0.6c-0.8-0.4-1.6-1-2.2-1.6c-0.6-0.7-1.1-1.4-1.5-2.3c-0.5-1.1-0.7-2.3-0.7-3.7c0-2.4,0.7-4.4,2.1-6.1
	c1.4-1.7,3.2-2.5,5.4-2.5c0.7,0,1.3,0.1,1.8,0.2c0.3,0.1,0.8,0.2,1.4,0.5c0.7,0.3,1,0.4,1.2,0.4c0.2,0,0.4-0.1,0.5-0.2
	c0.2-0.2,0.3-0.5,0.4-0.9H82.8L82.8,89.4z M88.5,90.2v-0.4h7.2v0.4h-0.4c-0.4,0-0.7,0.1-1,0.2c-0.2,0.1-0.3,0.3-0.4,0.6
	c-0.1,0.2-0.1,0.7-0.1,1.5v7.8c0,1.5-0.1,2.7-0.4,3.4c-0.3,0.7-0.7,1.3-1.4,1.7c-0.7,0.5-1.4,0.7-2.4,0.7c-1.1,0-2-0.4-2.7-1.1
	c-0.7-0.7-1-1.5-1-2.3c0-0.6,0.1-1,0.4-1.3c0.3-0.3,0.6-0.5,1-0.5c0.4,0,0.7,0.2,1,0.5c0.3,0.3,0.4,0.7,0.4,1.1c0,0.2,0,0.4-0.1,0.6
	c0,0.1-0.1,0.3-0.3,0.6c-0.2,0.3-0.3,0.5-0.3,0.7c0,0.2,0.1,0.4,0.3,0.5c0.3,0.2,0.6,0.3,1,0.3c0.3,0,0.5-0.1,0.7-0.3
	c0.2-0.2,0.3-0.4,0.4-0.8c0.1-0.4,0.1-1.4,0.1-3.1v-8.6c0-0.8,0-1.3-0.1-1.5c-0.1-0.2-0.2-0.4-0.4-0.5c-0.2-0.2-0.5-0.2-0.9-0.2
	H88.5L88.5,90.2z M104.2,105.4v0.4h-7v-0.4h0.4c0.4,0,0.7-0.1,0.9-0.2c0.2-0.1,0.3-0.3,0.4-0.6c0.1-0.2,0.1-0.7,0.1-1.5V92.5
	c0-0.8,0-1.3-0.1-1.5c-0.1-0.2-0.2-0.4-0.4-0.5c-0.2-0.2-0.5-0.2-0.9-0.2h-0.4v-0.4h7v0.4h-0.4c-0.4,0-0.7,0.1-0.9,0.2
	c-0.2,0.1-0.3,0.3-0.4,0.6c-0.1,0.2-0.1,0.7-0.1,1.5v10.5c0,0.8,0,1.3,0.1,1.5c0.1,0.2,0.2,0.4,0.4,0.5c0.2,0.2,0.5,0.2,0.9,0.2
	H104.2L104.2,105.4z M110.2,89.8h6.9v0.4h-0.3c-0.5,0-0.9,0.1-1.1,0.2c-0.2,0.1-0.3,0.3-0.4,0.5c-0.1,0.2-0.1,0.8-0.1,1.7v7.8
	c0,1.4,0.1,2.4,0.3,2.9c0.2,0.5,0.5,0.8,0.9,1.2c0.4,0.3,0.9,0.5,1.6,0.5c0.7,0,1.3-0.2,1.9-0.6c0.5-0.4,0.9-0.9,1.2-1.6
	c0.3-0.7,0.4-1.9,0.4-3.6v-6.5c0-0.7-0.1-1.2-0.2-1.5c-0.1-0.3-0.3-0.5-0.5-0.6c-0.3-0.2-0.7-0.3-1.3-0.3v-0.4h4.7v0.4h-0.3
	c-0.4,0-0.7,0.1-0.9,0.3c-0.3,0.2-0.4,0.5-0.5,0.8c-0.1,0.3-0.1,0.7-0.1,1.4v6.1c0,1.9-0.1,3.2-0.3,4.1c-0.2,0.8-0.7,1.6-1.5,2.3
	s-1.9,1.1-3.3,1.1c-1.2,0-2.1-0.2-2.7-0.6c-0.9-0.5-1.5-1.1-1.8-1.9c-0.4-0.8-0.5-1.8-0.5-3.2v-7.8c0-0.9,0-1.5-0.1-1.7
	c-0.1-0.2-0.2-0.4-0.4-0.5c-0.2-0.1-0.6-0.2-1.2-0.2V89.8L110.2,89.8z M130.5,89.8l6.6,9.9v-6.9c0-1-0.1-1.6-0.3-1.9
	c-0.3-0.5-0.8-0.7-1.6-0.7v-0.4h4.4v0.4c-0.6,0.1-0.9,0.2-1.1,0.3c-0.2,0.1-0.3,0.4-0.5,0.7c-0.1,0.3-0.2,0.8-0.2,1.6v13.3h-0.3
	l-9.1-13.3V103c0,0.9,0.2,1.5,0.5,1.9c0.4,0.3,0.8,0.5,1.2,0.5h0.3v0.4h-4.8v-0.4c0.7,0,1.3-0.2,1.5-0.5c0.3-0.4,0.4-1,0.4-1.8V91.7
	l-0.3-0.4c-0.3-0.4-0.5-0.7-0.8-0.8c-0.2-0.1-0.5-0.2-0.9-0.2v-0.4H130.5L130.5,89.8z M148.6,105.4v0.4h-7v-0.4h0.4
	c0.4,0,0.7-0.1,0.9-0.2c0.2-0.1,0.3-0.3,0.4-0.6c0.1-0.2,0.1-0.7,0.1-1.5V92.5c0-0.8,0-1.3-0.1-1.5c-0.1-0.2-0.2-0.4-0.4-0.5
	c-0.2-0.2-0.5-0.2-0.9-0.2h-0.4v-0.4h7v0.4h-0.4c-0.4,0-0.7,0.1-0.9,0.2c-0.2,0.1-0.3,0.3-0.4,0.6c-0.1,0.2-0.1,0.7-0.1,1.5v10.5
	c0,0.8,0,1.3,0.1,1.5c0.1,0.2,0.2,0.4,0.4,0.5c0.2,0.2,0.5,0.2,0.9,0.2H148.6L148.6,105.4z M164.5,89.8v0.4
	c-0.5,0.1-0.9,0.4-1.3,0.9c-0.3,0.4-0.7,1.3-1.2,2.8l-4.6,12.2H157l-4.6-12.7c-0.6-1.5-0.9-2.4-1.1-2.7c-0.2-0.3-0.5-0.4-1.1-0.5
	v-0.4h6.4v0.4h-0.2c-0.6,0-1,0.1-1.2,0.3c-0.2,0.1-0.2,0.3-0.2,0.5c0,0.1,0,0.3,0.1,0.5c0.1,0.2,0.2,0.7,0.5,1.6l2.9,8l2.7-7.1
	c0.3-0.9,0.5-1.4,0.6-1.7c0.1-0.3,0.1-0.5,0.1-0.7c0-0.2-0.1-0.4-0.2-0.6c-0.1-0.2-0.3-0.3-0.5-0.4c-0.3-0.1-0.7-0.2-1.1-0.2v-0.4
	H164.5L164.5,89.8z M171.3,90.7v6.5h0.3c0.9,0,1.5-0.3,1.9-1c0.4-0.6,0.6-1.6,0.7-2.8h0.4v8.4h-0.4c-0.1-0.9-0.2-1.7-0.5-2.2
	c-0.3-0.6-0.6-1-0.9-1.2c-0.3-0.2-0.8-0.3-1.5-0.3v4.5c0,0.9,0,1.4,0.1,1.6c0.1,0.2,0.2,0.4,0.4,0.5c0.2,0.1,0.4,0.2,0.8,0.2h0.8
	c1.3,0,2.3-0.3,3-1c0.8-0.7,1.3-1.7,1.6-3.2h0.4l-0.6,5.1h-11.6v-0.4h0.4c0.4,0,0.7-0.1,0.9-0.2c0.2-0.1,0.3-0.3,0.4-0.6
	c0.1-0.2,0.1-0.7,0.1-1.5V92.5c0-0.7,0-1.2-0.1-1.3c-0.1-0.3-0.2-0.5-0.4-0.6c-0.3-0.2-0.6-0.3-1-0.3h-0.4v-0.4h11.3v4.7H177
	c-0.2-1.2-0.5-2-0.8-2.5c-0.3-0.5-0.8-0.9-1.5-1.1c-0.4-0.1-1.1-0.2-2.1-0.2H171.3L171.3,90.7z M185.7,98.5v4.5c0,0.9,0,1.4,0.1,1.6
	c0.1,0.2,0.2,0.4,0.5,0.5c0.2,0.1,0.6,0.2,1.3,0.2v0.4h-6.9v-0.4c0.6,0,1-0.1,1.3-0.2c0.2-0.1,0.4-0.3,0.5-0.5
	c0.1-0.2,0.1-0.8,0.1-1.6V92.6c0-0.9,0-1.4-0.1-1.6c-0.1-0.2-0.2-0.4-0.5-0.5c-0.2-0.1-0.6-0.2-1.3-0.2v-0.4h6.3
	c1.6,0,2.8,0.1,3.6,0.4c0.8,0.3,1.4,0.8,1.8,1.5c0.5,0.7,0.7,1.6,0.7,2.5c0,1.2-0.4,2.2-1.1,2.9c-0.5,0.5-1.1,0.9-1.9,1.1l3.2,5.4
	c0.4,0.7,0.7,1.1,0.9,1.3c0.3,0.2,0.6,0.4,0.9,0.4v0.4h-4.2l-4.3-7.3H185.7L185.7,98.5z M185.7,90.6v7h0.6c0.9,0,1.6-0.1,2.1-0.3
	c0.5-0.2,0.8-0.6,1.1-1.1c0.3-0.5,0.4-1.2,0.4-2c0-1.2-0.2-2.1-0.7-2.7c-0.5-0.6-1.3-0.9-2.3-0.9H185.7L185.7,90.6z M205.5,89.4
	l0.1,5.3h-0.4c-0.2-1.3-0.7-2.4-1.4-3.2c-0.8-0.8-1.6-1.2-2.4-1.2c-0.7,0-1.2,0.2-1.6,0.6c-0.4,0.4-0.6,0.9-0.6,1.5
	c0,0.4,0.1,0.7,0.2,0.9c0.2,0.4,0.5,0.7,0.9,1.1c0.3,0.3,1,0.7,2.2,1.4c1.6,0.9,2.6,1.8,3.2,2.6c0.5,0.8,0.8,1.8,0.8,2.8
	c0,1.3-0.4,2.5-1.3,3.5c-0.9,1-2,1.4-3.3,1.4c-0.4,0-0.8-0.1-1.2-0.2c-0.4-0.1-0.9-0.3-1.4-0.6c-0.3-0.2-0.6-0.2-0.8-0.2
	c-0.2,0-0.4,0.1-0.5,0.2c-0.2,0.2-0.3,0.4-0.5,0.7h-0.4v-6h0.4c0.3,1.7,0.9,3,1.7,3.9c0.8,0.9,1.7,1.3,2.7,1.3
	c0.7,0,1.3-0.2,1.8-0.7c0.4-0.5,0.7-1,0.7-1.7c0-0.4-0.1-0.7-0.3-1.1c-0.2-0.4-0.4-0.7-0.8-1c-0.3-0.3-1-0.7-1.8-1.2
	c-1.2-0.7-2.1-1.3-2.6-1.8c-0.5-0.5-0.9-1.1-1.2-1.7c-0.3-0.6-0.4-1.3-0.4-2.1c0-1.3,0.4-2.4,1.2-3.3c0.8-0.9,1.8-1.3,3-1.3
	c0.4,0,0.9,0.1,1.3,0.2c0.3,0.1,0.7,0.3,1.1,0.5c0.4,0.3,0.8,0.4,0.9,0.4c0.2,0,0.3-0.1,0.4-0.2c0.1-0.1,0.2-0.4,0.3-0.9H205.5
	L205.5,89.4z M215.8,105.4v0.4h-7v-0.4h0.4c0.4,0,0.7-0.1,0.9-0.2c0.2-0.1,0.3-0.3,0.4-0.6c0.1-0.2,0.1-0.7,0.1-1.5V92.5
	c0-0.8,0-1.3-0.1-1.5c-0.1-0.2-0.2-0.4-0.4-0.5c-0.2-0.2-0.5-0.2-0.9-0.2h-0.4v-0.4h7v0.4h-0.4c-0.4,0-0.7,0.1-0.9,0.2
	c-0.2,0.1-0.3,0.3-0.4,0.6c-0.1,0.2-0.1,0.7-0.1,1.5v10.5c0,0.8,0,1.3,0.1,1.5c0.1,0.2,0.2,0.4,0.4,0.5c0.2,0.2,0.5,0.2,0.9,0.2
	H215.8L215.8,105.4z M230.1,89.8v4.3h-0.4c-0.2-1-0.4-1.7-0.7-2.2c-0.3-0.4-0.6-0.8-1.1-1c-0.2-0.1-0.7-0.2-1.3-0.2h-1v12.4
	c0,0.8,0,1.3,0.1,1.5c0.1,0.2,0.2,0.4,0.4,0.5c0.2,0.2,0.5,0.2,0.9,0.2h0.4v0.4h-7v-0.4h0.4c0.4,0,0.7-0.1,0.9-0.2
	c0.2-0.1,0.3-0.3,0.4-0.6c0.1-0.2,0.1-0.7,0.1-1.5V90.7h-1c-0.9,0-1.6,0.2-2,0.7c-0.6,0.6-0.9,1.5-1.1,2.7H218v-4.3H230.1
	L230.1,89.8z M246.3,89.8v0.4c-0.4,0.1-0.8,0.2-1,0.5c-0.3,0.3-0.9,1.2-1.6,2.7l-2.9,5.8v3.9c0,0.8,0,1.3,0.1,1.5
	c0.1,0.2,0.2,0.4,0.4,0.5c0.2,0.2,0.5,0.2,0.9,0.2h0.8v0.4h-7.6v-0.4h0.7c0.4,0,0.7-0.1,0.9-0.2c0.2-0.1,0.3-0.3,0.4-0.6
	c0.1-0.2,0.1-0.7,0.1-1.5v-3.2l-3.2-6.9c-0.6-1.4-1.1-2.1-1.3-2.4c-0.3-0.2-0.6-0.4-1-0.4v-0.4h6.4v0.4h-0.3c-0.4,0-0.7,0.1-0.8,0.2
	c-0.2,0.1-0.2,0.3-0.2,0.4c0,0.3,0.3,1,0.8,2.1l2.4,5.3l2.4-4.8c0.6-1.2,0.9-2,0.9-2.3c0-0.2-0.1-0.4-0.3-0.5
	c-0.2-0.2-0.6-0.3-1.2-0.4v-0.4H246.3L246.3,89.8z"/>
</svg>
